PathFileType	4	(X/Y/Z)	Patient4_TMGait_0pt2_03_right_15.trc.trc
DataRate	CameraRate	NumFrames	NumMarkers	Units	OrigDataRate	OrigDataStartFrame	OrigNumFrames
46.357615894040	46.357615894040	5	33	mm	46.357615894040	53	       141
Frame#	Time	Sacral			L.Shoulder			Chest			R.Shoulder			Neck			R.ASIS			L.ASIS			R.Thigh.Superior			R.Thigh.Lateral			R.Thigh.Inferior			R.Patella			L.Thigh.Superior			L.Thigh.Lateral			L.Thigh.Inferior			L.Patella			L.Shank.Superior			L.Shank.Lateral			L.Shank.Inferior			R.Shank.Superior			R.Shank.Lateral			R.Shank.Inferior			R.Heel			R.Midfoot.Superior			R.Midfoot.Lateral			R.Toe			L.Heel			L.Midfoot.Lateral			L.Midfoot.Superior			L.Toe			L.Elbow			L.Wrist			R.Elbow			R.Wrist			
		X1	Y1	Z1	X2	Y2	Z2	X3	Y3	Z3	X4	Y4	Z4	X5	Y5	Z5	X6	Y6	Z6	X7	Y7	Z7	X8	Y8	Z8	X9	Y9	Z9	X10	Y10	Z10	X11	Y11	Z11	X12	Y12	Z12	X13	Y13	Z13	X14	Y14	Z14	X15	Y15	Z15	X16	Y16	Z16	X17	Y17	Z17	X18	Y18	Z18	X19	Y19	Z19	X20	Y20	Z20	X21	Y21	Z21	X22	Y22	Z22	X23	Y23	Z23	X24	Y24	Z24	X25	Y25	Z25	X26	Y26	Z26	X27	Y27	Z27	X28	Y28	Z28	X29	Y29	Z29	X30	Y30	Z30	X31	Y31	Z31	X32	Y32	Z32	X33	Y33	Z33	

53	33.351714285714	835.054535287676	999.823587504282	613.302990663309	1015.132999315514	1410.337993262959	398.411047388909	1126.000140345385	1346.100226824694	555.121967659073	1061.246539036627	1434.016525829159	729.979975980292	1006.512729057144	1482.041002036108	551.596791038373	1070.714002947143	926.401421952763	711.434067432203	1034.703383663242	950.966747640536	439.927725390019	1113.189847063402	728.968144283065	665.375565741137	1041.832816227412	613.319528852344	725.617733049275	1113.009223235688	567.182560258990	636.192840080840	1115.479308286193	472.427197446276	638.836825453208	1105.544442396283	761.816142551895	445.328449722043	1029.941622541045	636.631000181830	360.516222454777	1144.394291788176	571.214394296718	407.102560257022	1149.099458079568	484.059579663915	391.642958415746	1080.639034256454	421.588637105429	383.417097601000	938.008356817984	384.194500215723	333.339122339528	924.500973937844	250.645000633459	378.494521174301	1069.274025101317	385.977870872499	643.933482175856	986.146292284583	293.955070324889	710.557960377593	999.892510534891	197.122791210770	640.733154930683	835.889101307236	47.667520654662	622.596122961244	1010.965345749190	96.749135310897	646.653196067087	923.798967024846	39.046177299146	691.014334357011	1131.049588644492	39.756566494380	667.757613282494	732.232034415783	189.612719709037	413.684007312206	786.806056486470	141.152011849410	332.832999045901	893.229594616237	146.732602694034	351.058292858665	967.957035336296	37.215371353470	322.754980821774	890.046816464112	1074.806662704399	311.426317719369	851.285323586463	817.242442446703	337.561843969852	1107.797697644704	1137.795278198918	930.650838146423	1359.069356987194	1093.292772340589	927.475860464729	
54	33.373285714286	833.680874011375	996.501857117643	618.508389375930	1010.671403941106	1408.247915585328	402.224220910860	1124.360570159422	1342.906314433587	556.459976544886	1063.375440284866	1430.083895384331	733.019617643129	1005.280168173976	1479.187700563062	555.587779550929	1071.058501181909	923.495279945948	712.854550585870	1031.174193142115	948.627038716058	441.798574961234	1114.597819834944	726.796637454266	665.775979341466	1044.726146320041	610.259106870720	725.842056366866	1115.578306325665	565.102308007073	635.516887962706	1118.437335710234	469.548878130055	637.602663633975	1107.835803848405	764.118868720878	448.502512070515	1038.846863586130	635.886180000146	362.543276770023	1154.241630213538	574.594364853668	410.260786410936	1161.269331841078	486.808174695587	394.160229564277	1092.714000726485	422.999809811148	385.212818330788	949.464372826678	386.618875624618	335.178339672008	935.310115470701	252.775761851348	379.633713728056	1070.623141029022	383.219175006849	642.957524061793	986.456618799361	292.376776951973	710.113317339627	997.792079909383	195.536198219790	640.206802312397	831.617528543845	47.513376272351	622.718609593596	1006.521907951183	96.551431913059	646.524696944545	919.479608503108	38.905908797015	691.144839762499	1126.738634509328	39.689866338275	667.808515766145	742.709102703735	191.657503493837	414.598924041635	797.067703355477	145.238153139830	332.599528527230	903.621026392523	150.141631504156	351.118794182040	978.185086387256	39.111043899486	319.741362783108	876.882165666603	1076.366702000937	317.268211958777	829.785140094179	820.903542846210	348.696113892890	1124.839791867054	1134.088920269923	929.766441874107	1377.965986662410	1101.569915751589	922.859522058931	
55	33.394857142857	832.508484431973	993.694878181965	623.268313883594	1006.073375079623	1406.759298281576	405.842326250786	1122.602463487531	1340.396912132242	557.511234110348	1065.289705125830	1426.666286117125	735.720786188559	1003.838946323907	1476.849683646237	559.434562151324	1071.514590531916	920.998912667507	713.804231908650	1027.796949640371	946.800666226947	443.273642004048	1115.595466720400	724.791657803524	665.792586720355	1046.967732419864	607.575224315360	725.797166345745	1117.278718559701	563.199009786371	634.553588520233	1120.339097593223	467.021668827961	636.116723148776	1109.212634286019	766.260773304026	451.328694432506	1045.868768823094	635.480631867038	364.577449441001	1161.808718618312	577.761221107307	413.441851753011	1171.108021706340	489.756313418736	396.886189032156	1103.173942890008	424.576863638036	386.972044583314	960.041414812141	387.480032266145	336.815528042611	947.101966141822	253.234165783918	380.281903011174	1071.165495014383	380.807376010415	641.824019331930	986.220627796957	290.991752170541	709.577239591734	995.386001809558	194.163369087977	639.635867740270	827.344035528816	47.399905950037	622.849752083283	1002.079953409992	96.378319104054	646.400047410253	915.164246992288	38.799370339858	691.277760122070	1122.424843013083	39.633999571187	667.858514178042	755.391772970293	189.181680989575	414.852384260955	810.078638638969	145.898396682376	331.665922410946	916.449564379477	151.681707381761	350.524040711700	992.360626741353	41.088295183717	315.956154613237	864.639756850564	1078.259298747984	323.330095742219	810.878275367075	824.915803170099	360.166188358507	1141.763696307989	1131.232912513501	927.657579923044	1396.059324836810	1110.740231634328	916.606342607810	
56	33.416428571429	831.616588260273	991.634574708879	627.579773565298	1001.425747810099	1406.045820953663	409.247960137770	1120.798245651291	1338.773456573587	558.283860029740	1067.032219882381	1424.003134090104	738.061241851698	1002.247783239290	1475.215032740978	563.119275471873	1072.117811906856	919.079572364271	714.284318042921	1024.629155638827	945.679672561440	444.356229112791	1116.057981513179	723.069653281412	665.467578186519	1048.370058749502	605.441233196589	725.595458090225	1117.873898088232	561.579012584157	633.428564212448	1120.911083995905	464.983720201614	634.553431857983	1109.626985604311	768.238771769854	453.735427237077	1050.740273249007	635.472143981539	366.538078861897	1166.871071587081	580.608554374867	416.533162529088	1178.333336627865	492.831210847402	399.694989012660	1111.787684459118	426.303260486160	388.610316192272	969.649809042601	386.657827444119	338.094475966185	959.891251705972	251.977355305007	380.327275885602	1070.679020360331	378.885177144370	640.677366761204	985.262429552511	289.880954742012	709.058689696139	992.585272499027	193.091683828227	639.100156796641	823.057857819212	47.347304968974	623.008321025726	997.652619429690	96.245374929153	646.316770041007	910.851897255351	38.729190521547	691.422908445766	1118.104727160486	39.588490444611	667.903735869325	770.449584298547	182.236112311619	414.295322945935	825.958980838465	142.995970371760	329.979410014961	931.806456552216	151.206919828724	349.210546437778	1010.509674985867	42.975277782817	311.574336011718	853.443289168751	1080.572551804631	329.589568023047	794.451335142529	829.230379698588	371.808146731020	1158.384849022498	1129.545140308058	924.417194254385	1413.127555213964	1121.102643693963	908.789781452386	
57	33.438000000000	831.055312928515	990.495793084278	631.437721063520	996.825605826542	1406.225516836569	412.420144566016	1119.021124080924	1338.162615629162	558.786284151046	1068.657570693842	1422.272447405951	740.021289451540	1000.577294246355	1474.417861477211	566.609508377913	1072.872265902789	917.863406426661	714.311582976964	1021.714137323045	945.397339725805	445.056907291132	1115.892747527723	721.732400038337	664.868826142922	1048.792903292090	603.993702996319	725.352563002795	1117.213023217880	560.333810674427	632.284097923628	1119.983359926451	463.543698245268	633.096468964233	1109.081784136865	770.061502394930	455.676231909932	1053.366224020127	635.883007437793	368.320765332089	1169.357509323928	583.067584094754	419.411991907422	1182.826565126822	495.977360652054	402.443658929503	1118.445772495956	428.177656135995	390.051996109664	978.296039810405	384.185640937889	338.890748554663	973.640930343607	249.163812250154	379.741545220199	1069.024361236521	377.565891657398	639.663572518396	983.458637045877	289.115617698981	708.661908131613	989.333926430661	192.393889242672	638.676825421067	818.751956719985	47.382619747235	623.210659565027	993.253942966090	96.163146819670	646.304245575074	906.542391172885	38.701390880186	691.588751571686	1113.776628685248	39.550363898834	667.941416049361	787.941676701460	171.297508120738	412.888170903095	844.687276588752	136.753321051349	327.597406419531	949.641447777082	148.817062608860	347.227364958631	1032.397342722958	44.679704312170	306.892143553352	843.361921544939	1083.379845425112	335.971327101064	780.381520080950	833.838891504928	383.436414840371	1174.539843765121	1129.275389784607	920.183587901060	1428.974443138385	1132.877882924138	899.550133709005	
